<svg xmlns="http://www.w3.org/2000/svg" xmlns:xlink="http://www.w3.org/1999/xlink" width="32" height="32" viewBox="0 0 32 32"><defs><linearGradient id="a" x1="0.5" x2="0.5" y2="1" gradientUnits="objectBoundingBox"><stop offset="0" stop-color="#0052b4"/><stop offset="1" stop-color="#00295a"/></linearGradient><linearGradient id="i" x1="0.257" y1="0.265" x2="1.012" y2="1.01" gradientUnits="objectBoundingBox"><stop offset="0" stop-color="#d80027"/><stop offset="1" stop-color="#6c0014"/></linearGradient><linearGradient id="n" x2="1" y2="1" gradientUnits="objectBoundingBox"><stop offset="0" stop-color="#0052b4"/><stop offset="0.66" stop-color="#003779"/><stop offset="1" stop-color="#00295a"/></linearGradient></defs><circle cx="10.323" cy="10.323" r="10.323" fill="#f0f0f0"/><g transform="translate(0.356 0.356)"><path d="M10.6,100.142a10.285,10.285,0,0,0-1.778,3.592h5.37Z" transform="translate(-8.819 -96.46)" fill="url(#a)"/><path d="M375.375,103.735a10.285,10.285,0,0,0-1.778-3.592l-3.592,3.592Z" transform="translate(-355.441 -96.461)" fill="url(#a)"/><path d="M8.819,322.784a10.285,10.285,0,0,0,1.778,3.592l3.592-3.592Z" transform="translate(-8.819 -310.124)" fill="url(#a)"/><path d="M326.374,10.6a10.285,10.285,0,0,0-3.592-1.778v5.37Z" transform="translate(-310.122 -8.819)" fill="url(#a)"/><path d="M100.142,373.6a10.286,10.286,0,0,0,3.592,1.778v-5.37Z" transform="translate(-96.46 -355.441)" fill="url(#a)"/><path d="M103.734,8.819a10.286,10.286,0,0,0-3.592,1.778l3.592,3.592Z" transform="translate(-96.46 -8.819)" fill="url(#a)"/><path d="M322.783,375.375a10.285,10.285,0,0,0,3.592-1.778l-3.592-3.592Z" transform="translate(-310.123 -355.441)" fill="url(#a)"/><path d="M370.005,322.784l3.592,3.592a10.284,10.284,0,0,0,1.778-3.592Z" transform="translate(-355.441 -310.124)" fill="url(#a)"/></g><g transform="translate(0 0)"><path d="M20.558,8.976H11.669V.087a10.417,10.417,0,0,0-2.693,0V8.976H.087a10.417,10.417,0,0,0,0,2.693H8.976v8.889a10.417,10.417,0,0,0,2.693,0V11.669h8.889a10.417,10.417,0,0,0,0-2.693Z" fill="url(#i)"/><path d="M322.783,322.783h0l4.606,4.606q.318-.318.607-.663l-3.944-3.944h-1.269Z" transform="translate(-309.768 -309.768)" fill="url(#i)"/><path d="M79.586,322.784h0L74.98,327.39q.318.318.663.607l3.944-3.944Z" transform="translate(-71.957 -309.769)" fill="url(#i)"/><path d="M65.146,79.586h0L60.54,74.98q-.318.318-.607.663l3.944,3.944h1.269Z" transform="translate(-57.516 -71.957)" fill="url(#i)"/><path d="M322.783,65.147h0l4.606-4.606q-.318-.318-.663-.607l-3.944,3.944Z" transform="translate(-309.768 -57.517)" fill="url(#i)"/></g><g transform="translate(7.226 7.226)"><g transform="translate(0 0)"><path d="M12.387,0A12.387,12.387,0,1,1,0,12.387,12.387,12.387,0,0,1,12.387,0Z" transform="translate(0 0)" fill="url(#n)"/><g transform="translate(4.483 4.483)"><path d="M222.672,100.174l.42,1.294h1.36l-1.1.8.42,1.294-1.1-.8-1.1.8.42-1.294-1.1-.8h1.36Z" transform="translate(-214.768 -100.174)" fill="#ffda44"/><path d="M139.371,139.37l1.212.618.962-.962-.213,1.344,1.212.618-1.344.213-.213,1.344-.618-1.212-1.344.213.962-.962Z" transform="translate(-137.056 -137.055)" fill="#ffda44"/><path d="M100.175,222.671l1.294-.421v-1.36l.8,1.1,1.294-.42-.8,1.1.8,1.1-1.294-.42-.8,1.1v-1.36Z" transform="translate(-100.175 -214.767)" fill="#ffda44"/><path d="M139.371,306.794l.618-1.212-.962-.962,1.344.213.618-1.212.213,1.344,1.344.213-1.212.618.213,1.344-.962-.962Z" transform="translate(-137.056 -293.3)" fill="#ffda44"/><path d="M222.672,348.432l-.421-1.294h-1.36l1.1-.8-.421-1.294,1.1.8,1.1-.8-.42,1.294,1.1.8h-1.36Z" transform="translate(-214.768 -332.624)" fill="#ffda44"/><path d="M306.8,306.794l-1.212-.618-.962.962.213-1.344-1.212-.618,1.344-.213.213-1.344.618,1.212,1.344-.213-.962.962Z" transform="translate(-293.302 -293.3)" fill="#ffda44"/><path d="M348.432,222.671l-1.294.42v1.36l-.8-1.1-1.294.421.8-1.1-.8-1.1,1.294.42.8-1.1v1.361Z" transform="translate(-332.624 -214.767)" fill="#ffda44"/><path d="M306.8,139.371l-.618,1.212.962.962-1.344-.213-.618,1.212-.213-1.344-1.344-.213,1.212-.618-.213-1.344.962.962Z" transform="translate(-293.302 -137.056)" fill="#ffda44"/></g></g></g></svg>