<svg xmlns="http://www.w3.org/2000/svg" xmlns:xlink="http://www.w3.org/1999/xlink" width="32" height="32" viewBox="0 0 32 32"><defs><linearGradient id="a" x2="1" y2="1" gradientUnits="objectBoundingBox"><stop offset="0" stop-color="#f0f0f0"/><stop offset="1" stop-color="#fffcfc"/></linearGradient><linearGradient id="b" x1="0.5" x2="0.948" y2="1.918" gradientUnits="objectBoundingBox"><stop offset="0" stop-color="#d80027"/><stop offset="1" stop-color="#6c0014"/></linearGradient><linearGradient id="f" x2="1" y2="1" gradientUnits="objectBoundingBox"><stop offset="0" stop-color="#0052b4"/><stop offset="0.66" stop-color="#003779"/><stop offset="1" stop-color="#00295a"/></linearGradient></defs><g transform="translate(0)"><circle cx="10.323" cy="10.323" r="10.323" transform="translate(0)" fill="url(#a)"/><g transform="translate(0.356 2.244)"><path d="M244.87,191.91h10.771a10.333,10.333,0,0,0-.356-2.693H244.87Z" transform="translate(-235.352 -183.831)" fill="url(#b)"/><path d="M244.87,58.345h9.256a10.378,10.378,0,0,0-2.382-2.693H244.87Z" transform="translate(-235.352 -55.652)" fill="url(#b)"/><path d="M103.07,458.592a10.278,10.278,0,0,0,6.426-2.244H96.644A10.278,10.278,0,0,0,103.07,458.592Z" transform="translate(-93.103 -440.191)" fill="url(#b)"/><path d="M9.978,325.475H27.593a10.261,10.261,0,0,0,1.159-2.693H8.819A10.261,10.261,0,0,0,9.978,325.475Z" transform="translate(-8.819 -312.011)" fill="url(#b)"/></g><path d="M4.782,1.612h.941l-.875.636.334,1.029-.875-.636-.875.636.289-.889a10.379,10.379,0,0,0-2,2.231h.3l-.557.4q-.13.217-.25.441l.266.819-.5-.361q-.185.392-.338.8l.293.9H2.02l-.875.636L1.479,9.29.6,8.655.08,9.035A10.422,10.422,0,0,0,0,10.323H10.323V0A10.274,10.274,0,0,0,4.782,1.612Zm.4,7.678-.875-.636-.875.636.334-1.029-.875-.636H3.972L4.307,6.6l.334,1.029H5.722l-.875.636ZM4.847,5.255l.334,1.029-.875-.636-.875.636.334-1.029-.875-.636H3.972L4.307,3.59l.334,1.029H5.722ZM8.884,9.29l-.875-.636-.875.636.334-1.029-.875-.636H7.675L8.009,6.6l.334,1.029H9.425l-.875.636ZM8.55,5.255l.334,1.029-.875-.636-.875.636.334-1.029-.875-.636H7.675L8.009,3.59l.334,1.029H9.425Zm0-3.007.334,1.029-.875-.636-.875.636.334-1.029-.875-.636H7.675L8.009.583l.334,1.029H9.425Z" transform="translate(0)" fill="#0052b4"/></g><g transform="translate(7.226 7.226)"><g transform="translate(0 0)"><path d="M12.387,0A12.387,12.387,0,1,1,0,12.387,12.387,12.387,0,0,1,12.387,0Z" transform="translate(0 0)" fill="url(#f)"/><g transform="translate(4.483 4.483)"><path d="M222.672,100.174l.42,1.294h1.36l-1.1.8.42,1.294-1.1-.8-1.1.8.42-1.294-1.1-.8h1.36Z" transform="translate(-214.768 -100.174)" fill="#ffda44"/><path d="M139.371,139.37l1.212.618.962-.962-.213,1.344,1.212.618-1.344.213-.213,1.344-.618-1.212-1.344.213.962-.962Z" transform="translate(-137.056 -137.055)" fill="#ffda44"/><path d="M100.175,222.671l1.294-.421v-1.36l.8,1.1,1.294-.42-.8,1.1.8,1.1-1.294-.42-.8,1.1v-1.36Z" transform="translate(-100.175 -214.767)" fill="#ffda44"/><path d="M139.371,306.794l.618-1.212-.962-.962,1.344.213.618-1.212.213,1.344,1.344.213-1.212.618.213,1.344-.962-.962Z" transform="translate(-137.056 -293.3)" fill="#ffda44"/><path d="M222.672,348.432l-.421-1.294h-1.36l1.1-.8-.421-1.294,1.1.8,1.1-.8-.42,1.294,1.1.8h-1.36Z" transform="translate(-214.768 -332.624)" fill="#ffda44"/><path d="M306.8,306.794l-1.212-.618-.962.962.213-1.344-1.212-.618,1.344-.213.213-1.344.618,1.212,1.344-.213-.962.962Z" transform="translate(-293.302 -293.3)" fill="#ffda44"/><path d="M348.432,222.671l-1.294.42v1.36l-.8-1.1-1.294.421.8-1.1-.8-1.1,1.294.42.8-1.1v1.361Z" transform="translate(-332.624 -214.767)" fill="#ffda44"/><path d="M306.8,139.371l-.618,1.212.962.962-1.344-.213-.618,1.212-.213-1.344-1.344-.213,1.212-.618-.213-1.344.962.962Z" transform="translate(-293.302 -137.056)" fill="#ffda44"/></g></g></g></svg>